<svg xmlns="http://www.w3.org/2000/svg" height="2251" preserveAspectRatio="none" style="width:751px;height:2251px" width="751"><defs><filter height="300%" id="prefix__a" width="300%" x="-1" y="-1"><feGaussianBlur result="blurOut" stdDeviation="2"/><feColorMatrix in="blurOut" result="blurOut2" values="0 0 0 0 0 0 0 0 0 0 0 0 0 0 0 0 0 0 .4 0"/><feOffset dx="4" dy="4" in="blurOut2" result="blurOut3"/><feBlend in="SourceGraphic" in2="blurOut3"/></filter></defs><text font-family="sans-serif" font-size="18" lengthAdjust="spacingAndGlyphs" textLength="234" x="258.5" y="29.402">ion sequence diagram v1.0</text><path fill="#FFF" filter="url(#prefix__a)" stroke="#000" stroke-width="2" d="M295 533.725h442.5v105.242H295z"/><path stroke="#a80036" stroke-dasharray="5 5" d="M117 75.688v2131.943M324 75.688v2131.943M584.5 75.688v2131.943M634.5 75.688v2131.943M695.5 75.688v2131.943"/><path fill="#FEFECE" filter="url(#prefix__a)" stroke="#a80036" stroke-width="1.5" d="M85 40.199h61v30.488H85z"/><text font-family="sans-serif" font-size="14" lengthAdjust="spacingAndGlyphs" textLength="47" x="92" y="60.734">clientA</text><path fill="#FEFECE" filter="url(#prefix__a)" stroke="#a80036" stroke-width="1.5" d="M85 2206.631h61v30.488H85z"/><text font-family="sans-serif" font-size="14" lengthAdjust="spacingAndGlyphs" textLength="47" x="92" y="2227.166">clientA</text><path fill="#FEFECE" filter="url(#prefix__a)" stroke="#a80036" stroke-width="1.5" d="M305 40.199h35v30.488h-35z"/><text font-family="sans-serif" font-size="14" lengthAdjust="spacingAndGlyphs" textLength="21" x="312" y="60.734">biz</text><path fill="#FEFECE" filter="url(#prefix__a)" stroke="#a80036" stroke-width="1.5" d="M305 2206.631h35v30.488h-35z"/><text font-family="sans-serif" font-size="14" lengthAdjust="spacingAndGlyphs" textLength="21" x="312" y="2227.166">biz</text><path fill="#FEFECE" filter="url(#prefix__a)" stroke="#a80036" stroke-width="1.5" d="M563.5 40.199h38v30.488h-38z"/><text font-family="sans-serif" font-size="14" lengthAdjust="spacingAndGlyphs" textLength="24" x="570.5" y="60.734">islb</text><path fill="#FEFECE" filter="url(#prefix__a)" stroke="#a80036" stroke-width="1.5" d="M563.5 2206.631h38v30.488h-38z"/><text font-family="sans-serif" font-size="14" lengthAdjust="spacingAndGlyphs" textLength="24" x="570.5" y="2227.166">islb</text><path fill="#FEFECE" filter="url(#prefix__a)" stroke="#a80036" stroke-width="1.5" d="M615.5 40.199h35v30.488h-35z"/><text font-family="sans-serif" font-size="14" lengthAdjust="spacingAndGlyphs" textLength="21" x="622.5" y="60.734">sfu</text><path fill="#FEFECE" filter="url(#prefix__a)" stroke="#a80036" stroke-width="1.5" d="M615.5 2206.631h35v30.488h-35z"/><text font-family="sans-serif" font-size="14" lengthAdjust="spacingAndGlyphs" textLength="21" x="622.5" y="2227.166">sfu</text><path fill="#FEFECE" filter="url(#prefix__a)" stroke="#a80036" stroke-width="1.5" d="M664.5 40.199h59v30.488h-59z"/><text font-family="sans-serif" font-size="14" lengthAdjust="spacingAndGlyphs" textLength="45" x="671.5" y="60.734">clientB</text><path fill="#FEFECE" filter="url(#prefix__a)" stroke="#a80036" stroke-width="1.5" d="M664.5 2206.631h59v30.488h-59z"/><text font-family="sans-serif" font-size="14" lengthAdjust="spacingAndGlyphs" textLength="45" x="671.5" y="2227.166">clientB</text><path d="M79 90.688v25h29v-15l-10-10H79" fill="#FBFB77" filter="url(#prefix__a)" stroke="#a80036"/><path d="M98 90.688v10h10l-10-10" fill="#FBFB77" stroke="#a80036"/><text font-family="sans-serif" font-size="13" lengthAdjust="spacingAndGlyphs" textLength="8" x="85" y="108.256">1</text><path d="M24 129.998v25h182v-15l-10-10H24" fill="#FBFB77" filter="url(#prefix__a)" stroke="#a80036"/><path d="M196 129.998v10h10l-10-10" fill="#FBFB77" stroke="#a80036"/><text font-family="sans-serif" font-size="13" lengthAdjust="spacingAndGlyphs" textLength="161" x="30" y="147.566">new WebSocket(newUID())</text><path d="M13 169.309v25h204v-15l-10-10H13" fill="#FBFB77" filter="url(#prefix__a)" stroke="#a80036"/><path d="M207 169.309v10h10l-10-10" fill="#FBFB77" stroke="#a80036"/><text font-family="sans-serif" font-size="13" lengthAdjust="spacingAndGlyphs" textLength="183" x="19" y="186.877">pc.setLocalDescription(cSDP)</text><path fill="#A80036" stroke="#a80036" d="M312.5 220.93l10 4-10 4 4-4z"/><path stroke="#a80036" d="M117.5 224.93h201"/><text font-family="sans-serif" font-size="13" lengthAdjust="spacingAndGlyphs" textLength="113" x="124.5" y="220.188">join(sid,cSDP,info)</text><path d="M236 237.93v25h173v-15l-10-10H236" fill="#FBFB77" filter="url(#prefix__a)" stroke="#a80036"/><path d="M399 237.93v10h10l-10-10" fill="#FBFB77" stroke="#a80036"/><text font-family="sans-serif" font-size="13" lengthAdjust="spacingAndGlyphs" textLength="152" x="242" y="255.498">addPeer(uid) &amp; newMID()</text><path fill="#A80036" stroke="#a80036" d="M572.5 289.551l10 4-10 4 4-4z"/><path stroke="#a80036" d="M324.5 293.551h254"/><text font-family="sans-serif" font-size="13" lengthAdjust="spacingAndGlyphs" textLength="165" x="331.5" y="288.809">peer-join(uid,sid,mid,info)</text><path stroke="#a80036" d="M324.5 322.861l10-4M324.5 322.861l10 4M324.5 322.861h259"/><text font-family="sans-serif" font-size="13" lengthAdjust="spacingAndGlyphs" textLength="203" x="341.5" y="318.119">broadcast peer-join(uid,sid,info)</text><path stroke="#a80036" d="M694 352.172l-10-4M694 352.172l-10 4M324.5 352.172H695"/><text font-family="sans-serif" font-size="13" lengthAdjust="spacingAndGlyphs" textLength="203" x="331.5" y="347.43">broadcast peer-join(uid,sid,info)</text><path fill="#A80036" stroke="#a80036" d="M335.5 377.482l-10 4 10 4-4-4z"/><path stroke="#a80036" stroke-dasharray="2 2" d="M329.5 381.482h254"/><text font-family="sans-serif" font-size="13" lengthAdjust="spacingAndGlyphs" textLength="155" x="341.5" y="376.74">peer-join(peers,streams)</text><path fill="#A80036" stroke="#a80036" d="M623 406.793l10 4-10 4 4-4z"/><path stroke="#a80036" d="M324.5 410.793H629"/><text font-family="sans-serif" font-size="13" lengthAdjust="spacingAndGlyphs" textLength="112" x="331.5" y="406.051">join(sid,mid,cSDP)</text><path d="M524 423.793v25h218v-15l-10-10H524" fill="#FBFB77" filter="url(#prefix__a)" stroke="#a80036"/><path d="M732 423.793v10h10l-10-10" fill="#FBFB77" stroke="#a80036"/><text font-family="sans-serif" font-size="13" lengthAdjust="spacingAndGlyphs" textLength="197" x="530" y="441.361">pc.SetRemoteDescription(cSDP)</text><path d="M531 463.103v25h204v-15l-10-10H531" fill="#FBFB77" filter="url(#prefix__a)" stroke="#a80036"/><path d="M725 463.103v10h10l-10-10" fill="#FBFB77" stroke="#a80036"/><text font-family="sans-serif" font-size="13" lengthAdjust="spacingAndGlyphs" textLength="183" x="537" y="480.672">pc.SetLocalDescription(sSDP)</text><path fill="#A80036" stroke="#a80036" d="M335.5 514.725l-10 4 10 4-4-4z"/><path stroke="#a80036" stroke-dasharray="2 2" d="M329.5 518.725H634"/><text font-family="sans-serif" font-size="13" lengthAdjust="spacingAndGlyphs" textLength="63" x="341.5" y="513.982">join(sSDP)</text><path d="M295 533.725h74v7l-10 10h-64v-17" fill="#EEE" stroke="#000"/><path fill="none" stroke="#000" stroke-width="2" d="M295 533.725h442.5v105.242H295z"/><text font-family="sans-serif" font-size="13" font-weight="bold" lengthAdjust="spacingAndGlyphs" textLength="29" x="310" y="547.293">loop</text><text font-family="sans-serif" font-size="11" font-weight="bold" lengthAdjust="spacingAndGlyphs" textLength="208" x="384" y="546.359">[for streamId := range cSDP.streams]</text><path stroke="#a80036" d="M582.5 572.346l-10-4M582.5 572.346l-10 4M324.5 572.346h259"/><text font-family="sans-serif" font-size="13" lengthAdjust="spacingAndGlyphs" textLength="210" x="331.5" y="567.604">stream-add(uid,sid,mid,streamId)</text><path stroke="#a80036" d="M324.5 601.656l10-4M324.5 601.656l10 4M324.5 601.656h259"/><text font-family="sans-serif" font-size="13" lengthAdjust="spacingAndGlyphs" textLength="236" x="341.5" y="596.914">broadcast stream-add(sid,uid,stream)</text><path stroke="#a80036" d="M694 630.967l-10-4M694 630.967l-10 4M324.5 630.967H695"/><text font-family="sans-serif" font-size="13" lengthAdjust="spacingAndGlyphs" textLength="236" x="331.5" y="626.225">broadcast stream-add(sid,uid,stream)</text><path fill="#A80036" stroke="#a80036" d="M128.5 663.277l-10 4 10 4-4-4z"/><path stroke="#a80036" stroke-dasharray="2 2" d="M122.5 667.277h201"/><text font-family="sans-serif" font-size="13" lengthAdjust="spacingAndGlyphs" textLength="183" x="134.5" y="662.535">join(peers,streams,mid,sSDP)</text><path d="M6 680.277v25h218v-15l-10-10H6" fill="#FBFB77" filter="url(#prefix__a)" stroke="#a80036"/><path d="M214 680.277v10h10l-10-10" fill="#FBFB77" stroke="#a80036"/><text font-family="sans-serif" font-size="13" lengthAdjust="spacingAndGlyphs" textLength="197" x="12" y="697.846">pc.setRemoteDescription(sSDP)</text><path d="M79 719.588v25h29v-15l-10-10H79" fill="#FBFB77" filter="url(#prefix__a)" stroke="#a80036"/><path d="M98 719.588v10h10l-10-10" fill="#FBFB77" stroke="#a80036"/><text font-family="sans-serif" font-size="13" lengthAdjust="spacingAndGlyphs" textLength="8" x="85" y="737.156">2</text><path d="M9 758.898v25h213v-15l-10-10H9" fill="#FBFB77" filter="url(#prefix__a)" stroke="#a80036"/><path d="M212 758.898v10h10l-10-10" fill="#FBFB77" stroke="#a80036"/><text font-family="sans-serif" font-size="13" lengthAdjust="spacingAndGlyphs" textLength="192" x="15" y="776.467">pc.onicecandidate(cCandidate)</text><path fill="#A80036" stroke="#a80036" d="M312.5 810.519l10 4-10 4 4-4z"/><path stroke="#a80036" d="M117.5 814.519h201"/><text font-family="sans-serif" font-size="13" lengthAdjust="spacingAndGlyphs" textLength="167" x="124.5" y="809.777">trickle(sid,mid,cCandidate)</text><path fill="#A80036" stroke="#a80036" d="M623 839.83l10 4-10 4 4-4z"/><path stroke="#a80036" d="M324.5 843.83H629"/><text font-family="sans-serif" font-size="13" lengthAdjust="spacingAndGlyphs" textLength="146" x="331.5" y="839.088">trickle(mid,cCandidate)</text><path d="M524 856.83v25h217v-15l-10-10H524" fill="#FBFB77" filter="url(#prefix__a)" stroke="#a80036"/><path d="M731 856.83v10h10l-10-10" fill="#FBFB77" stroke="#a80036"/><text font-family="sans-serif" font-size="13" lengthAdjust="spacingAndGlyphs" textLength="196" x="530" y="874.398">pc.AddICECandidate(candidate)</text><path d="M79 896.14v25h29v-15l-10-10H79" fill="#FBFB77" filter="url(#prefix__a)" stroke="#a80036"/><path d="M98 896.14v10h10l-10-10" fill="#FBFB77" stroke="#a80036"/><text font-family="sans-serif" font-size="13" lengthAdjust="spacingAndGlyphs" textLength="8" x="85" y="913.709">3</text><path d="M523 935.451v25h219v-15l-10-10H523" fill="#FBFB77" filter="url(#prefix__a)" stroke="#a80036"/><path d="M732 935.451v10h10l-10-10" fill="#FBFB77" stroke="#a80036"/><text font-family="sans-serif" font-size="13" lengthAdjust="spacingAndGlyphs" textLength="198" x="529" y="953.019">pc.OnICECandidate(sCandidate)</text><path stroke="#a80036" d="M324.5 991.072l10-4M324.5 991.072l10 4M324.5 991.072H634"/><text font-family="sans-serif" font-size="13" lengthAdjust="spacingAndGlyphs" textLength="146" x="341.5" y="986.33">trickle(mid,sCandidate)</text><path stroke="#a80036" d="M117.5 1020.383l10-4M117.5 1020.383l10 4M117.5 1020.383h206"/><text font-family="sans-serif" font-size="13" lengthAdjust="spacingAndGlyphs" textLength="167" x="134.5" y="1015.641">trickle(sid,mid,sCandidate)</text><path d="M5 1033.383v25h222v-15l-10-10H5" fill="#FBFB77" filter="url(#prefix__a)" stroke="#a80036"/><path d="M217 1033.383v10h10l-10-10" fill="#FBFB77" stroke="#a80036"/><text font-family="sans-serif" font-size="13" lengthAdjust="spacingAndGlyphs" textLength="201" x="11" y="1050.951">pc.addIceCandidate(sCandidate)</text><path d="M79 1072.693v25h29v-15l-10-10H79" fill="#FBFB77" filter="url(#prefix__a)" stroke="#a80036"/><path d="M98 1072.693v10h10l-10-10" fill="#FBFB77" stroke="#a80036"/><text font-family="sans-serif" font-size="13" lengthAdjust="spacingAndGlyphs" textLength="8" x="85" y="1090.262">4</text><path d="M539 1112.004v25h187v-15l-10-10H539" fill="#FBFB77" filter="url(#prefix__a)" stroke="#a80036"/><path d="M716 1112.004v10h10l-10-10" fill="#FBFB77" stroke="#a80036"/><text font-family="sans-serif" font-size="13" lengthAdjust="spacingAndGlyphs" textLength="166" x="545" y="1129.572">pc.OnNegotiationNeeded()</text><path d="M531 1151.314v25h204v-15l-10-10H531" fill="#FBFB77" filter="url(#prefix__a)" stroke="#a80036"/><path d="M725 1151.314v10h10l-10-10" fill="#FBFB77" stroke="#a80036"/><text font-family="sans-serif" font-size="13" lengthAdjust="spacingAndGlyphs" textLength="183" x="537" y="1168.883">pc.SetLocalDescription(sSDP)</text><path stroke="#a80036" d="M324.5 1206.936l10-4M324.5 1206.936l10 4M324.5 1206.936H634"/><text font-family="sans-serif" font-size="13" lengthAdjust="spacingAndGlyphs" textLength="97" x="341.5" y="1202.193">offer(mid,sSDP)</text><path stroke="#a80036" d="M117.5 1236.246l10-4M117.5 1236.246l10 4M117.5 1236.246h206"/><text font-family="sans-serif" font-size="13" lengthAdjust="spacingAndGlyphs" textLength="118" x="134.5" y="1231.504">offer(sid,mid,sSDP)</text><path d="M6 1249.246v25h218v-15l-10-10H6" fill="#FBFB77" filter="url(#prefix__a)" stroke="#a80036"/><path d="M214 1249.246v10h10l-10-10" fill="#FBFB77" stroke="#a80036"/><text font-family="sans-serif" font-size="13" lengthAdjust="spacingAndGlyphs" textLength="197" x="12" y="1266.814">pc.setRemoteDescription(sSDP)</text><path d="M13 1288.557v25h204v-15l-10-10H13" fill="#FBFB77" filter="url(#prefix__a)" stroke="#a80036"/><path d="M207 1288.557v10h10l-10-10" fill="#FBFB77" stroke="#a80036"/><text font-family="sans-serif" font-size="13" lengthAdjust="spacingAndGlyphs" textLength="183" x="19" y="1306.125">pc.setLocalDescription(cSDP)</text><path fill="#A80036" stroke="#a80036" d="M312.5 1340.178l10 4-10 4 4-4z"/><path stroke="#a80036" stroke-dasharray="2 2" d="M117.5 1344.178h201"/><text font-family="sans-serif" font-size="13" lengthAdjust="spacingAndGlyphs" textLength="132" x="124.5" y="1339.436">answer(sid,mid,cSDP)</text><path fill="#A80036" stroke="#a80036" d="M623 1369.488l10 4-10 4 4-4z"/><path stroke="#a80036" stroke-dasharray="2 2" d="M324.5 1373.488H629"/><text font-family="sans-serif" font-size="13" lengthAdjust="spacingAndGlyphs" textLength="111" x="331.5" y="1368.746">answer(mid,cSDP)</text><path d="M524 1386.488v25h218v-15l-10-10H524" fill="#FBFB77" filter="url(#prefix__a)" stroke="#a80036"/><path d="M732 1386.488v10h10l-10-10" fill="#FBFB77" stroke="#a80036"/><text font-family="sans-serif" font-size="13" lengthAdjust="spacingAndGlyphs" textLength="197" x="530" y="1404.057">pc.SetRemoteDescription(cSDP)</text><path d="M79 1425.799v25h29v-15l-10-10H79" fill="#FBFB77" filter="url(#prefix__a)" stroke="#a80036"/><path d="M98 1425.799v10h10l-10-10" fill="#FBFB77" stroke="#a80036"/><text font-family="sans-serif" font-size="13" lengthAdjust="spacingAndGlyphs" textLength="8" x="85" y="1443.367">5</text><path d="M25 1465.11v25h181v-15l-10-10H25" fill="#FBFB77" filter="url(#prefix__a)" stroke="#a80036"/><path d="M196 1465.11v10h10l-10-10" fill="#FBFB77" stroke="#a80036"/><text font-family="sans-serif" font-size="13" lengthAdjust="spacingAndGlyphs" textLength="160" x="31" y="1482.678">pc.onnegotiationneeded()</text><path d="M13 1504.42v25h204v-15l-10-10H13" fill="#FBFB77" filter="url(#prefix__a)" stroke="#a80036"/><path d="M207 1504.42v10h10l-10-10" fill="#FBFB77" stroke="#a80036"/><text font-family="sans-serif" font-size="13" lengthAdjust="spacingAndGlyphs" textLength="183" x="19" y="1521.988">pc.setLocalDescription(cSDP)</text><path fill="#A80036" stroke="#a80036" d="M312.5 1556.041l10 4-10 4 4-4z"/><path stroke="#a80036" d="M117.5 1560.041h201"/><text font-family="sans-serif" font-size="13" lengthAdjust="spacingAndGlyphs" textLength="142" x="124.5" y="1555.299">offer(uid,sid,mid,cSDP)</text><path fill="#A80036" stroke="#a80036" d="M623 1585.352l10 4-10 4 4-4z"/><path stroke="#a80036" d="M324.5 1589.352H629"/><text font-family="sans-serif" font-size="13" lengthAdjust="spacingAndGlyphs" textLength="97" x="331.5" y="1584.609">offer(mid,cSDP)</text><path d="M524 1602.352v25h218v-15l-10-10H524" fill="#FBFB77" filter="url(#prefix__a)" stroke="#a80036"/><path d="M732 1602.352v10h10l-10-10" fill="#FBFB77" stroke="#a80036"/><text font-family="sans-serif" font-size="13" lengthAdjust="spacingAndGlyphs" textLength="197" x="530" y="1619.92">pc.SetRemoteDescription(cSDP)</text><path d="M531 1641.662v25h204v-15l-10-10H531" fill="#FBFB77" filter="url(#prefix__a)" stroke="#a80036"/><path d="M725 1641.662v10h10l-10-10" fill="#FBFB77" stroke="#a80036"/><text font-family="sans-serif" font-size="13" lengthAdjust="spacingAndGlyphs" textLength="183" x="537" y="1659.23">pc.SetLocalDescription(sSDP)</text><path fill="#A80036" stroke="#a80036" d="M335.5 1693.283l-10 4 10 4-4-4z"/><path stroke="#a80036" stroke-dasharray="2 2" d="M329.5 1697.283H634"/><text font-family="sans-serif" font-size="13" lengthAdjust="spacingAndGlyphs" textLength="111" x="341.5" y="1692.541">answer(mid,sSDP)</text><path fill="#A80036" stroke="#a80036" d="M128.5 1722.594l-10 4 10 4-4-4z"/><path stroke="#a80036" stroke-dasharray="2 2" d="M122.5 1726.594h201"/><text font-family="sans-serif" font-size="13" lengthAdjust="spacingAndGlyphs" textLength="156" x="134.5" y="1721.852">answer(uid,sid,mid,sSDP)</text><path d="M6 1739.594v25h218v-15l-10-10H6" fill="#FBFB77" filter="url(#prefix__a)" stroke="#a80036"/><path d="M214 1739.594v10h10l-10-10" fill="#FBFB77" stroke="#a80036"/><text font-family="sans-serif" font-size="13" lengthAdjust="spacingAndGlyphs" textLength="197" x="12" y="1757.162">pc.setRemoteDescription(sSDP)</text><path d="M79 1778.904v25h29v-15l-10-10H79" fill="#FBFB77" filter="url(#prefix__a)" stroke="#a80036"/><path d="M98 1778.904v10h10l-10-10" fill="#FBFB77" stroke="#a80036"/><text font-family="sans-serif" font-size="13" lengthAdjust="spacingAndGlyphs" textLength="8" x="85" y="1796.473">6</text><path fill="#A80036" stroke="#a80036" d="M312.5 1830.525l10 4-10 4 4-4z"/><path stroke="#a80036" d="M117.5 1834.525h201"/><text font-family="sans-serif" font-size="13" lengthAdjust="spacingAndGlyphs" textLength="140" x="124.5" y="1829.783">broadcast(sid,uid,info)</text><path stroke="#a80036" d="M582.5 1863.836l-10-4M582.5 1863.836l-10 4M324.5 1863.836h259"/><text font-family="sans-serif" font-size="13" lengthAdjust="spacingAndGlyphs" textLength="140" x="331.5" y="1859.094">broadcast(sid,uid,info)</text><path stroke="#a80036" d="M324.5 1893.147l10-4M324.5 1893.147l10 4M324.5 1893.147h259"/><text font-family="sans-serif" font-size="13" lengthAdjust="spacingAndGlyphs" textLength="140" x="341.5" y="1888.404">broadcast(sid,uid,info)</text><path stroke="#a80036" d="M694 1922.457l-10-4M694 1922.457l-10 4M324.5 1922.457H695"/><text font-family="sans-serif" font-size="13" lengthAdjust="spacingAndGlyphs" textLength="140" x="331.5" y="1917.715">broadcast(sid,uid,info)</text><path fill="#A80036" stroke="#a80036" d="M128.5 1932.457l-10 4 10 4-4-4z"/><path stroke="#a80036" stroke-dasharray="2 2" d="M122.5 1936.457h201"/><path d="M79 1949.457v25h29v-15l-10-10H79" fill="#FBFB77" filter="url(#prefix__a)" stroke="#a80036"/><path d="M98 1949.457v10h10l-10-10" fill="#FBFB77" stroke="#a80036"/><text font-family="sans-serif" font-size="13" lengthAdjust="spacingAndGlyphs" textLength="8" x="85" y="1967.025">8</text><path fill="#A80036" stroke="#a80036" d="M312.5 2001.078l10 4-10 4 4-4z"/><path stroke="#a80036" d="M117.5 2005.078h201"/><text font-family="sans-serif" font-size="13" lengthAdjust="spacingAndGlyphs" textLength="81" x="124.5" y="2000.336">leave(sid,uid)</text><path d="M263 2018.078v25h119v-15l-10-10H263" fill="#FBFB77" filter="url(#prefix__a)" stroke="#a80036"/><path d="M372 2018.078v10h10l-10-10" fill="#FBFB77" stroke="#a80036"/><text font-family="sans-serif" font-size="13" lengthAdjust="spacingAndGlyphs" textLength="98" x="269" y="2035.647">delPeer(sid, uid)</text><path stroke="#a80036" d="M582.5 2073.699l-10-4M582.5 2073.699l-10 4M324.5 2073.699h259"/><text font-family="sans-serif" font-size="13" lengthAdjust="spacingAndGlyphs" textLength="116" x="331.5" y="2068.957">peer-leave(sid,uid)</text><path stroke="#a80036" d="M324.5 2103.01l10-4M324.5 2103.01l10 4M324.5 2103.01h259"/><text font-family="sans-serif" font-size="13" lengthAdjust="spacingAndGlyphs" textLength="182" x="341.5" y="2098.268">broadcast peer-leave(sid,uid)</text><path stroke="#a80036" d="M694 2132.32l-10-4M694 2132.32l-10 4M324.5 2132.32H695"/><text font-family="sans-serif" font-size="13" lengthAdjust="spacingAndGlyphs" textLength="182" x="331.5" y="2127.578">broadcast peer-leave(sid,uid)</text><path fill="#A80036" stroke="#a80036" d="M623 2157.631l10 4-10 4 4-4z"/><path stroke="#a80036" d="M324.5 2161.631H629"/><text font-family="sans-serif" font-size="13" lengthAdjust="spacingAndGlyphs" textLength="109" x="331.5" y="2156.889">leave(sid,uid,mid)</text><path fill="#A80036" stroke="#a80036" d="M335.5 2171.631l-10 4 10 4-4-4z"/><path stroke="#a80036" stroke-dasharray="2 2" d="M329.5 2175.631H634"/><path fill="#A80036" stroke="#a80036" d="M128.5 2185.631l-10 4 10 4-4-4z"/><path stroke="#a80036" stroke-dasharray="2 2" d="M122.5 2189.631h201"/></svg>