<?xml version="1.0" encoding="UTF-8"?>
<svg width="423px" height="125px" viewBox="0 0 423 125" version="1.1" xmlns="http://www.w3.org/2000/svg" xmlns:xlink="http://www.w3.org/1999/xlink">
    <!-- Generator: Sketch 53.2 (72643) - https://sketchapp.com -->
    <title>Horizontal-Red</title>
    <desc>Created with Sketch.</desc>
    <g id="Page-1" stroke="none" stroke-width="1" fill="none" fill-rule="evenodd">
        <g id="Brand---Logo-Light" transform="translate(-208.000000, -530.000000)">
            <g id="Horizontal-Red" transform="translate(207.977954, 530.078125)">
                <g id="Group" transform="translate(167.983887, 29.913993)" fill="#FFFFFF" fill-rule="nonzero">
                    <path d="M23.3299538,0.304830294 L5.5017561,0.304830294 C2.57375599,0.304830294 0.197498937,2.66570982 0.197498937,5.56781864 L0.197498937,58.7327104 C0.197498937,61.7250241 2.57375599,64.0827931 5.5017561,64.0827931 C8.42662131,64.0827931 10.8028784,61.7250241 10.8028784,58.7327104 L10.8028784,46.4835094 L23.3299538,46.4835094 C36.1297659,46.4835094 46.5533209,36.141053 46.5533209,23.3506226 C46.5533209,10.6472867 36.1297659,0.304830294 23.3299538,0.304830294 Z M23.3299538,35.8704383 L10.8028784,35.8704383 L10.8028784,10.9210119 L23.3299538,10.9210119 C30.2800354,10.9210119 35.9479414,16.4546149 35.9479414,23.3506226 C35.9479414,30.3337248 30.2800354,35.8704383 23.3299538,35.8704383 Z" id="Shape"></path>
                    <path d="M78.83029,64.0827931 C75.9054248,64.0827931 73.5291678,61.7250241 73.5291678,58.8229153 L73.5291678,5.65802352 C73.5291678,2.7559147 75.9054248,0.395035177 78.83029,0.395035177 C81.7582901,0.395035177 84.2254594,2.7559147 84.2254594,5.65802352 L84.2254594,58.8229153 C84.2254594,61.7250241 81.7582901,64.0827931 78.83029,64.0827931 Z" id="Shape"></path>
                    <path d="M143.293316,64.0827931 C125.552896,64.0827931 111.198171,49.8397531 111.198171,32.2404694 C111.198171,14.7313905 125.552896,0.395035177 143.293316,0.395035177 C160.939689,0.395035177 175.385326,14.7313905 175.385326,32.2404694 C175.385326,49.8397531 160.939689,64.0827931 143.293316,64.0827931 Z M143.293316,10.9210119 C131.405761,10.9210119 121.806686,20.5356082 121.806686,32.2404694 C121.806686,44.0355355 131.405761,53.5599269 143.293316,53.5599269 C155.086824,53.5599269 164.779946,44.0355355 164.779946,32.2404694 C164.779946,20.5356082 155.086824,10.9210119 143.293316,10.9210119 Z" id="Shape"></path>
                    <path d="M249.447427,64.0827931 C247.801603,64.0827931 246.246691,63.3580435 245.243521,61.9987492 L212.508856,20.8093334 L212.508856,58.8229153 C212.508856,61.7250241 210.132599,64.0827931 207.204599,64.0827931 C204.279734,64.0827931 201.903477,61.7250241 201.903477,58.8229153 L201.903477,5.65802352 C201.903477,3.3904594 203.364342,1.39350992 205.467862,0.66876034 C207.662295,-0.149304634 210.038552,0.578555456 211.41164,2.39198466 L244.146305,43.5814005 L244.146305,5.65802352 C244.146305,2.66570982 246.522562,0.304830294 249.447427,0.304830294 C252.375427,0.304830294 254.751684,2.66570982 254.751684,5.65802352 L254.751684,58.8229153 C254.751684,61.0002745 253.287684,62.9941135 251.184164,63.7219736 C250.635556,63.9925882 249.996035,64.0827931 249.447427,64.0827931 Z" id="Shape"></path>
                </g>
                <path d="M56.8428529,109.224866 C56.8388497,109.143276 56.836829,109.061225 56.836829,108.97877 C56.836829,106.384654 58.8369117,104.372969 61.6472038,104.372969 C64.457496,104.372969 66.835598,106.384654 66.835598,108.97877 C66.835598,109.061225 66.8331953,109.143276 66.8284526,109.224866 L66.8329126,109.224866 L66.8329126,113.830285 C71.8961494,113.344686 76.8867307,112.123108 81.5844435,110.165551 C97.9401588,103.347871 110.314906,87.7073105 112.874508,69.8123327 C114.790635,56.4290549 111.241511,42.35828 103.14516,31.5130125 C97.7235327,24.2531324 90.3670688,18.5169087 82.0350607,14.9295734 C81.9963024,14.9172055 81.958174,14.9028999 81.9207248,14.886609 C80.2507793,14.1601596 75.913269,12.3917674 75.42305,9.44331942 C74.9328311,6.49487147 76.9036534,4.06273398 80.0482357,4.06273398 C80.6453924,4.06273398 81.2524227,4.15044191 81.8440418,4.31273782 L81.8440418,4.30780276 C81.8682369,4.31620082 81.8924272,4.32461376 81.9166127,4.33304156 C82.233754,4.42350222 82.5461485,4.53533602 82.8498755,4.66650855 C90.6187215,7.51153093 97.860339,11.8990607 103.92591,17.6227056 C118.090949,30.9916605 125.372231,51.1725663 122.683934,70.8292555 C120.324524,88.0968922 110.240549,104.106982 95.6951446,113.763452 C86.0932751,120.138855 74.6728204,123.64274 63.1540642,123.932563 C63.1279647,123.917827 63.1025557,123.910113 63.0773115,123.910553 C62.7027196,123.917094 61.8416524,123.970598 61.4269285,123.93937 C61.0122046,123.908141 60.0439481,123.860738 59.6516072,123.682206 C59.226734,123.48887 58.6165435,123.229055 58.2207209,122.863492 C58.1060334,122.757572 57.5234494,121.973669 57.5205683,121.808564 C57.2364592,121.250422 57.1065955,120.827291 56.9948583,120.033244 C56.9074385,119.412006 56.8571585,118.726048 56.829229,118.047177 L56.829229,117.947763 L56.8286305,109.224866 L56.8428529,109.224866 Z M66.8329133,71.4327611 C66.8346983,71.4827659 66.835598,71.5330016 66.835598,71.5834575 C66.835598,74.1775734 64.457496,76.3717815 61.6472038,76.3717815 C58.8603822,76.3717815 56.8702934,74.2140707 56.8372468,71.648368 L56.8286305,71.648368 L56.8286305,11.0000916 C42.6773748,12.448204 29.1286709,19.9032584 20.4599982,31.5130125 C10.830746,44.403584 7.687726,61.8746052 12.4322848,77.4807904 C15.2759614,86.8359933 20.9111865,95.2699233 28.3028416,101.649975 L28.1597939,62.8968519 L28.1732825,62.8968519 C28.0571333,58.5039414 28.7797281,54.0893378 30.3566938,49.9774139 C32.1794943,45.2255924 35.1151917,40.9177392 38.8185367,37.4294408 C40.2110382,35.9998799 42.2145236,34.4153031 44.081435,34.5946858 C47.0546119,34.8803643 48.8881986,37.4259677 48.0687563,40.4841679 C47.6420482,42.0766643 46.2670353,43.7394349 45.0256307,44.8383754 C44.8605955,45.0005833 44.6979704,45.1644377 44.5385216,45.3314736 C40.4115026,49.6494652 37.9255901,55.5221768 37.802305,61.4799121 C37.7093359,65.9740243 38.8734705,70.5005265 41.1815291,74.3407657 C43.9645385,78.9765842 48.3300434,82.6488002 53.38069,84.5638589 C61.0668082,87.4809831 70.2141578,86.0416525 76.6654039,80.9341547 C80.0001646,78.2943699 82.6578678,74.7760063 84.2039841,70.8041828 C86.2937675,65.4355406 86.3968419,59.3037091 84.4444911,53.8804087 C83.1995138,50.420752 81.1077094,47.3092878 78.445964,44.7767949 L78.445964,44.768168 C77.0223543,43.5800756 74.0819926,40.7438592 74.3733694,38.2101341 C74.7148431,35.2407814 77.2797071,33.446093 80.3024735,34.3128574 C81.3484845,34.6127962 82.3457344,35.2017301 83.1690376,35.961176 C84.3627884,36.9358738 85.4888571,37.9941636 86.5342745,39.1308133 C90.7239466,43.6876812 93.6747045,49.3883209 94.8752183,55.4897868 C96.3910187,63.2067038 95.1339149,71.4398365 91.3140981,78.3267599 C91.1679844,78.5901814 91.0182894,78.8515278 90.8650899,79.1107316 L90.9277067,79.1107316 C86.5234749,86.627367 79.1764155,92.3565099 70.7483174,94.6710836 C62.6748458,96.8853974 53.8091844,95.9945156 46.3362898,92.0901048 C42.9679488,90.3294605 39.9079258,87.9891324 37.3051845,85.2195561 L37.2748064,85.2195561 L37.2430554,111.613825 C37.1853715,112.569471 37.0791353,113.374049 37.0180158,113.524964 C36.6027035,114.550439 35.9706566,115.014202 35.3298179,115.319426 C35.2574292,115.467845 34.138842,115.721422 33.9901346,115.76895 C33.4768988,115.932983 32.7877308,115.773286 32.3209536,115.76895 C31.8899172,115.764946 30.7256331,115.354115 30.3490278,115.156493 C30.0098712,114.978522 28.8256084,114.215383 28.3475017,113.945421 C18.9805903,107.802651 11.2131255,99.148406 6.33499767,88.9362116 C-1.76135309,71.9836778 -1.58117997,51.2069412 7.16436599,34.2400845 C17.2054425,14.7609988 38.0511863,1.31183586 60.6128645,0.88215014 C60.6388917,0.881667368 60.6649097,0.881202676 60.6909198,0.880755557 C60.7115404,0.890724282 60.7318627,0.896001226 60.7521704,0.896001226 C61.1268211,0.896001226 61.9886946,0.85753753 62.4028124,0.896001226 C62.8169302,0.934464921 63.7842166,0.998765277 64.1733847,1.18412058 C64.594822,1.38484527 65.2003892,1.65527448 65.5897752,2.02769392 C65.7025978,2.13560053 66.2714188,2.92956007 66.2714188,3.09469117 C66.5457479,3.65771138 66.6682099,4.08304691 66.7660766,4.87892882 C66.7928893,5.09697721 66.8150098,5.32288131 66.833127,5.55356915 L66.833127,10.9854936 L66.8329133,71.4327611 Z" id="Combined-Shape" fill="#E53935"></path>
            </g>
        </g>
    </g>
</svg>